<svg xmlns="http://www.w3.org/2000/svg" version="1.1" xmlnsXlink="http://www.w3.org/1999/xlink" xmlnsSvgjs="http://svgjs.dev/svgjs" width="1000" height="252" viewBox="0 0 1000 252"><g transform="matrix(1,0,0,1,-0.6060606060606233,0.40423529285989446)">
<svg viewBox="0 0 396 100" data-background-color="#ffffff" preserveAspectRatio="xMidYMid meet" height="252" width="1000" xmlns="http://www.w3.org/2000/svg" xmlnsXlink="http://www.w3.org/1999/xlink">
<g id="tight-bounds" transform="matrix(1,0,0,1,0.2400000000000091,-0.16041083049995564)">
<svg viewBox="0 0 395.52 100.32082166099991" height="100.32082166099991" width="395.52"><g>
<svg viewBox="0 0 397.4975999999999 100.8224257693049" height="100.32082166099991" width="395.52"><g><rect width="397.4975999999999" height="3.0880577386462273" x="0" y="55.407572997365264" fill="#5f4435" opacity="1" stroke-width="0" stroke="transparent" fill-opacity="1" class="rect-o-0" data-fill-palette-color="secondary" rx="1%" id="o-0" data-palette-color="#5f4435">
</rect>
</g>
<g transform="matrix(1,0,0,1,0.9887999999999693,66.5795515178079)"><svg viewBox="0 0 395.52 34.242874251497" height="34.242874251497" width="395.52">
<g id="textblocktransform"><svg viewBox="0 0 395.52 34.242874251497" height="34.242874251497" width="395.52" id="textblock">
<g>
<svg viewBox="0 0 395.52 34.242874251497" height="34.242874251497" width="395.52"><g transform="matrix(1,0,0,1,0,0)">
<svg width="395.52" viewBox="1.5 -34.25 400.7699890136719 34.70000076293945" height="34.242874251497" data-palette-color="#5f4435">
<path d="M1.5-33.95L1.5-33.95Q2.7-33.9 4.45-33.88 6.2-33.85 8.15-33.83 10.1-33.8 11.95-33.8 13.8-33.8 15.2-33.8L15.2-33.8 15.2-9.6Q15.2-7.3 15.55-6.03 15.9-4.75 16.75-4.25 17.6-3.75 19.1-3.75L19.1-3.75 16.95 0Q15.65 0 13.43 0.03 11.2 0.05 8.78 0.08 6.35 0.1 4.35 0.13 2.35 0.15 1.5 0.15L1.5 0.15Q1.5-0.95 1.6-2 1.7-3.05 1.9-3.75L1.9-3.75Q3.25-3.85 3.98-4.28 4.7-4.7 4.95-5.88 5.2-7.05 5.2-9.35L5.2-9.35 5.2-24.55Q5.2-26.8 4.95-27.9 4.7-29 3.98-29.43 3.25-29.85 1.85-30.05L1.85-30.05Q1.65-30.8 1.58-31.98 1.5-33.15 1.5-33.95ZM26.45-10.55L26.45-10.55Q28.1-10.4 29.5-9.93 30.9-9.45 31.55-8.85L31.55-8.85Q31-7.15 30.6-4.75 30.2-2.35 30 0.1L30 0.1Q28.55 0.05 26.28 0.05 24 0.05 21.53 0.03 19.05 0 16.95 0L16.95 0 19.1-3.75 19.95-3.75Q21.65-3.75 22.88-4.45 24.1-5.15 24.95-6.65 25.8-8.15 26.45-10.55ZM23.7-22.85L23.7-22.85Q23.65-21.65 23.58-20.28 23.5-18.9 23.5-17L23.5-17Q23.5-14.9 23.58-13.53 23.65-12.15 23.7-11.05L23.7-11.05Q22.3-11.05 21.28-11.15 20.25-11.25 19.4-11.55L19.4-11.55Q19.2-13.6 18.32-14.28 17.45-14.95 15.25-14.95L15.25-14.95 12.4-14.95 12.4-18.7 15.25-18.7Q17.7-18.7 18.48-19.5 19.25-20.3 19.3-22.25L19.3-22.25Q20.15-22.6 21.38-22.73 22.6-22.85 23.7-22.85ZM28.55-33.95L28.55-33.95Q28.6-32.7 28.73-31.05 28.85-29.4 29.08-27.83 29.3-26.25 29.6-25.05L29.6-25.05Q28.65-24.7 27.48-24.43 26.3-24.15 24.55-24.15L24.55-24.15Q24.25-25.95 23.58-27.28 22.9-28.6 21.53-29.33 20.15-30.05 17.65-30.05L17.65-30.05 13-30.05 14.7-33.8Q18.45-33.8 21-33.83 23.55-33.85 25.35-33.88 27.15-33.9 28.55-33.95ZM53 0.45L53 0.45 41.35-26.1 42.7-26.1 41.25-12.3Q40.9-8.8 41.1-7 41.3-5.2 42.07-4.53 42.85-3.85 44.2-3.75L44.2-3.75Q44.45-2.9 44.52-1.93 44.6-0.95 44.6 0.15L44.6 0.15Q43.85 0.05 42.27 0.03 40.7 0 39.1 0L39.1 0Q38.05 0 36.77 0.03 35.5 0.05 34.4 0.08 33.3 0.1 32.8 0.15L32.8 0.15Q32.8-0.95 32.9-1.93 33-2.9 33.2-3.75L33.2-3.75Q34.5-3.85 35.32-4.58 36.15-5.3 36.67-7.1 37.2-8.9 37.5-12.1L37.5-12.1 38.6-24.3Q38.85-26.7 38.65-27.95 38.45-29.2 37.7-29.63 36.95-30.05 35.5-30.05L35.5-30.05Q35.25-30.95 35.17-31.85 35.1-32.75 35.1-33.95L35.1-33.95Q35.85-33.9 37.2-33.88 38.55-33.85 39.92-33.83 41.3-33.8 42.1-33.8L42.1-33.8Q42.9-33.8 44.32-33.83 45.75-33.85 47.07-33.88 48.4-33.9 48.9-33.95L48.9-33.95 58.95-10 57.1-10 65.75-33.95Q66.65-33.9 68.05-33.88 69.45-33.85 70.8-33.83 72.15-33.8 72.95-33.8L72.95-33.8Q73.75-33.8 75.05-33.83 76.35-33.85 77.65-33.88 78.95-33.9 79.7-33.95L79.7-33.95Q79.7-32.9 79.62-31.85 79.55-30.8 79.3-30.05L79.3-30.05Q77-30.05 76.37-28.83 75.75-27.6 76.1-24.25L76.1-24.25 77.5-10.55Q77.8-7.6 78.17-6.2 78.55-4.8 79.27-4.38 80-3.95 81.35-3.8L81.35-3.8Q81.55-2.95 81.62-1.98 81.7-1 81.7 0.15L81.7 0.15Q81.2 0.1 80 0.08 78.8 0.05 77.27 0.03 75.75 0 74.3 0 72.85 0 71.95 0L71.95 0Q70.75 0 69.17 0.03 67.6 0.05 66.22 0.08 64.85 0.1 64.25 0.15L64.25 0.15Q64.25-1.1 64.37-1.98 64.5-2.85 64.7-3.75L64.7-3.75Q66.25-3.95 66.95-4.4 67.65-4.85 67.75-6.13 67.85-7.4 67.55-10L67.55-10 65.85-25.95 66.95-25.95 56.75 0.05Q56.1 0.25 55 0.35 53.9 0.45 53 0.45ZM83.7 0.15L83.7 0.15Q83.7-1.2 83.77-2.13 83.85-3.05 84.05-3.75L84.05-3.75Q85.4-3.85 86.12-4.28 86.85-4.7 87.12-5.88 87.4-7.05 87.4-9.35L87.4-9.35 87.4-24.55Q87.4-26.8 87.17-27.9 86.95-29 86.25-29.43 85.55-29.85 84.15-30.05L84.15-30.05Q83.95-30.8 83.82-31.78 83.7-32.75 83.7-33.95L83.7-33.95Q86.05-33.9 88.1-33.85 90.15-33.8 91.85-33.8L91.85-33.8Q93.45-33.8 95.45-33.83 97.45-33.85 99.17-33.88 100.9-33.9 101.7-33.9L101.7-33.9Q106.95-33.9 109.87-32.55 112.8-31.2 113.95-28.85 115.1-26.5 115.1-23.45L115.1-23.45Q115.1-19.65 113.62-16.8 112.15-13.95 109.32-12.35 106.5-10.75 102.45-10.75L102.45-10.75Q100.35-10.75 99.05-11.25L99.05-11.25Q98.85-12.35 99-13.25 99.15-14.15 99.5-14.85L99.5-14.85Q99.8-14.8 100.1-14.78 100.4-14.75 100.6-14.75L100.6-14.75Q101.65-14.75 102.62-15.45 103.6-16.15 104.22-17.75 104.85-19.35 104.85-21.95L104.85-21.95Q104.85-25.5 103.52-27.73 102.2-29.95 99.35-29.95L99.35-29.95Q98.75-29.95 98.12-29.83 97.5-29.7 96.95-29.4L96.95-29.4 97.4-30.25 97.4-9.85Q97.4-7.7 97.9-6.43 98.4-5.15 99.57-4.53 100.75-3.9 102.85-3.75L102.85-3.75Q103.15-2.95 103.22-1.88 103.3-0.8 103.3 0.15L103.3 0.15Q102.35 0.1 100.72 0.08 99.1 0.05 97.22 0.03 95.35 0 93.65 0L93.65 0Q91.95 0 90.07 0.03 88.2 0.05 86.52 0.08 84.85 0.1 83.7 0.15ZM122.04-9.35L122.04-24.55Q122.04-26.8 121.82-27.9 121.59-29 120.89-29.43 120.19-29.85 118.79-30.05L118.79-30.05Q118.59-30.8 118.47-31.9 118.34-33 118.34-33.95L118.34-33.95Q119.19-33.9 120.84-33.88 122.49-33.85 124.29-33.83 126.09-33.8 127.29-33.8L127.29-33.8Q128.49-33.8 130.09-33.83 131.69-33.85 133.22-33.88 134.74-33.9 135.74-33.95L135.74-33.95Q135.74-32.95 135.69-32 135.64-31.05 135.29-30.05L135.29-30.05Q133.94-29.9 133.24-29.48 132.54-29.05 132.29-27.93 132.04-26.8 132.04-24.55L132.04-24.55 132.04-9.35Q132.04-7.05 132.29-5.88 132.54-4.7 133.27-4.28 133.99-3.85 135.34-3.75L135.34-3.75Q135.54-3.1 135.64-1.98 135.74-0.85 135.74 0.15L135.74 0.15Q134.64 0.05 132.52 0.03 130.39 0 127.79 0L127.79 0Q125.19 0 122.64 0.03 120.09 0.05 118.34 0.15L118.34 0.15Q118.34-0.75 118.49-1.9 118.64-3.05 118.84-3.75L118.84-3.75Q120.19-3.85 120.89-4.28 121.59-4.7 121.82-5.88 122.04-7.05 122.04-9.35L122.04-9.35ZM160.89 0.45L160.89 0.45Q160.39-0.75 159.89-2 159.39-3.25 158.89-4.58 158.39-5.9 157.89-7.2L157.89-7.2Q157.19-9.05 156.62-10.2 156.04-11.35 155.37-12.08 154.69-12.8 153.69-13.35L153.69-13.35 156.29-13.05Q154.89-13 153.92-12.98 152.94-12.95 151.54-13L151.54-13 152.04-17.1Q152.84-16.95 153.22-16.9 153.59-16.85 153.94-16.85L153.94-16.85Q155.39-16.85 156.69-17.57 157.99-18.3 158.84-19.78 159.69-21.25 159.69-23.45L159.69-23.45Q159.69-26.7 158.29-28.48 156.89-30.25 154.54-30.25L154.54-30.25Q153.89-30.25 153.29-30.13 152.69-30 152.04-29.75L152.04-29.75 152.44-31.8 152.44-9.85Q152.44-7.15 152.69-5.85 152.94-4.55 153.47-4.17 153.99-3.8 154.89-3.75L154.89-3.75Q155.09-3.25 155.17-2.1 155.24-0.95 155.24 0.15L155.24 0.15Q154.29 0.1 152.69 0.08 151.09 0.05 149.39 0.03 147.69 0 146.49 0L146.49 0Q144.49 0 142.49 0.03 140.49 0.05 138.74 0.15L138.74 0.15Q138.74-1.15 138.84-2.1 138.94-3.05 139.14-3.75L139.14-3.75Q140.49-3.85 141.22-4.28 141.94-4.7 142.19-5.88 142.44-7.05 142.44-9.35L142.44-9.35 142.44-24.65Q142.44-26.9 142.19-28 141.94-29.1 141.22-29.53 140.49-29.95 139.09-30.15L139.09-30.15Q138.89-30.9 138.82-32.2 138.74-33.5 138.74-34L138.74-34Q140.24-33.95 142.49-33.88 144.74-33.8 147.34-33.8L147.34-33.8Q148.79-33.8 151.64-33.93 154.49-34.05 157.69-34.05L157.69-34.05Q162.04-34.05 164.79-32.77 167.54-31.5 168.84-29.35 170.14-27.2 170.14-24.65L170.14-24.65Q170.14-21.3 168.94-18.98 167.74-16.65 165.69-15.4 163.64-14.15 161.09-13.9L161.09-13.9 162.29-14.55Q163.79-14.15 164.72-13.48 165.64-12.8 166.52-11.38 167.39-9.95 168.74-7.2L168.74-7.2Q169.39-5.95 169.92-5.25 170.44-4.55 171.07-4.28 171.69-4 172.64-3.9L172.64-3.9Q172.64-2.8 172.49-1.85 172.34-0.9 172.09 0L172.09 0Q168.14 0 165.27 0.1 162.39 0.2 160.89 0.45ZM174.64-33.95L174.64-33.95Q175.84-33.9 177.59-33.88 179.34-33.85 181.29-33.83 183.24-33.8 185.09-33.8 186.94-33.8 188.34-33.8L188.34-33.8 188.34-9.6Q188.34-7.3 188.69-6.03 189.04-4.75 189.89-4.25 190.74-3.75 192.24-3.75L192.24-3.75 190.09 0Q188.79 0 186.56 0.03 184.34 0.05 181.91 0.08 179.49 0.1 177.49 0.13 175.49 0.15 174.64 0.15L174.64 0.15Q174.64-0.95 174.74-2 174.84-3.05 175.04-3.75L175.04-3.75Q176.39-3.85 177.11-4.28 177.84-4.7 178.09-5.88 178.34-7.05 178.34-9.35L178.34-9.35 178.34-24.55Q178.34-26.8 178.09-27.9 177.84-29 177.11-29.43 176.39-29.85 174.99-30.05L174.99-30.05Q174.79-30.8 174.71-31.98 174.64-33.15 174.64-33.95ZM199.59-10.55L199.59-10.55Q201.24-10.4 202.64-9.93 204.04-9.45 204.69-8.85L204.69-8.85Q204.14-7.15 203.74-4.75 203.34-2.35 203.14 0.1L203.14 0.1Q201.69 0.05 199.41 0.05 197.14 0.05 194.66 0.03 192.19 0 190.09 0L190.09 0 192.24-3.75 193.09-3.75Q194.79-3.75 196.01-4.45 197.24-5.15 198.09-6.65 198.94-8.15 199.59-10.55ZM196.84-22.85L196.84-22.85Q196.79-21.65 196.71-20.28 196.64-18.9 196.64-17L196.64-17Q196.64-14.9 196.71-13.53 196.79-12.15 196.84-11.05L196.84-11.05Q195.44-11.05 194.41-11.15 193.39-11.25 192.54-11.55L192.54-11.55Q192.34-13.6 191.46-14.28 190.59-14.95 188.39-14.95L188.39-14.95 185.54-14.95 185.54-18.7 188.39-18.7Q190.84-18.7 191.61-19.5 192.39-20.3 192.44-22.25L192.44-22.25Q193.29-22.6 194.51-22.73 195.74-22.85 196.84-22.85ZM201.69-33.95L201.69-33.95Q201.74-32.7 201.86-31.05 201.99-29.4 202.21-27.83 202.44-26.25 202.74-25.05L202.74-25.05Q201.79-24.7 200.61-24.43 199.44-24.15 197.69-24.15L197.69-24.15Q197.39-25.95 196.71-27.28 196.04-28.6 194.66-29.33 193.29-30.05 190.79-30.05L190.79-30.05 186.14-30.05 187.84-33.8Q191.59-33.8 194.14-33.83 196.69-33.85 198.49-33.88 200.29-33.9 201.69-33.95ZM216.93 0.15L216.93 0.15Q216.93-0.95 217.03-2 217.13-3.05 217.33-3.75L217.33-3.75Q218.68-3.85 219.41-4.28 220.13-4.7 220.38-5.88 220.63-7.05 220.63-9.35L220.63-9.35 220.63-24.55Q220.63-26.8 220.38-27.9 220.13-29 219.41-29.43 218.68-29.85 217.28-30.05L217.28-30.05Q217.08-30.8 217.01-31.98 216.93-33.15 216.93-33.95L216.93-33.95Q218.13-33.9 219.88-33.88 221.63-33.85 223.61-33.83 225.58-33.8 227.38-33.8L227.38-33.8Q228.43-33.8 229.73-33.85 231.03-33.9 232.63-33.9L232.63-33.9Q235.53-33.9 238.23-33.52 240.93-33.15 243.18-32.15 245.43-31.15 247.11-29.33 248.78-27.5 249.71-24.68 250.63-21.85 250.63-17.75L250.63-17.75Q250.63-13.7 249.63-10.8 248.63-7.9 247.01-5.95 245.38-4 243.38-2.8 241.38-1.6 239.31-1 237.23-0.4 235.43-0.2 233.63 0 232.38 0L232.38 0Q231.08 0 228.86 0.03 226.63 0.05 224.21 0.08 221.78 0.1 219.78 0.13 217.78 0.15 216.93 0.15ZM234.53-3.75L234.53-3.75Q235.08-3.75 236.08-4.13 237.08-4.5 238.11-5.78 239.13-7.05 239.83-9.68 240.53-12.3 240.53-16.85L240.53-16.85Q240.53-20.85 239.88-23.45 239.23-26.05 238.11-27.5 236.98-28.95 235.58-29.55 234.18-30.15 232.63-30.15L232.63-30.15Q231.78-30.15 231.03-29.9 230.28-29.65 229.88-29.25L229.88-29.25 230.63-31.45 230.63-9.6Q230.63-7.3 230.98-6.03 231.33-4.75 232.18-4.25 233.03-3.75 234.53-3.75ZM253.88-33.95L253.88-33.95Q255.08-33.9 256.83-33.88 258.58-33.85 260.53-33.83 262.48-33.8 264.33-33.8 266.18-33.8 267.58-33.8L267.58-33.8 267.58-9.6Q267.58-7.3 267.93-6.03 268.28-4.75 269.13-4.25 269.98-3.75 271.48-3.75L271.48-3.75 269.33 0Q268.03 0 265.81 0.03 263.58 0.05 261.16 0.08 258.73 0.1 256.73 0.13 254.73 0.15 253.88 0.15L253.88 0.15Q253.88-0.95 253.98-2 254.08-3.05 254.28-3.75L254.28-3.75Q255.63-3.85 256.36-4.28 257.08-4.7 257.33-5.88 257.58-7.05 257.58-9.35L257.58-9.35 257.58-24.55Q257.58-26.8 257.33-27.9 257.08-29 256.36-29.43 255.63-29.85 254.23-30.05L254.23-30.05Q254.03-30.8 253.96-31.98 253.88-33.15 253.88-33.95ZM278.83-10.55L278.83-10.55Q280.48-10.4 281.88-9.93 283.28-9.45 283.93-8.85L283.93-8.85Q283.38-7.15 282.98-4.75 282.58-2.35 282.38 0.1L282.38 0.1Q280.93 0.05 278.66 0.05 276.38 0.05 273.91 0.03 271.43 0 269.33 0L269.33 0 271.48-3.75 272.33-3.75Q274.03-3.75 275.26-4.45 276.48-5.15 277.33-6.65 278.18-8.15 278.83-10.55ZM276.08-22.85L276.08-22.85Q276.03-21.65 275.96-20.28 275.88-18.9 275.88-17L275.88-17Q275.88-14.9 275.96-13.53 276.03-12.15 276.08-11.05L276.08-11.05Q274.68-11.05 273.66-11.15 272.63-11.25 271.78-11.55L271.78-11.55Q271.58-13.6 270.71-14.28 269.83-14.95 267.63-14.95L267.63-14.95 264.78-14.95 264.78-18.7 267.63-18.7Q270.08-18.7 270.86-19.5 271.63-20.3 271.68-22.25L271.68-22.25Q272.53-22.6 273.76-22.73 274.98-22.85 276.08-22.85ZM280.93-33.95L280.93-33.95Q280.98-32.7 281.11-31.05 281.23-29.4 281.46-27.83 281.68-26.25 281.98-25.05L281.98-25.05Q281.03-24.7 279.86-24.43 278.68-24.15 276.93-24.15L276.93-24.15Q276.63-25.95 275.96-27.28 275.28-28.6 273.91-29.33 272.53-30.05 270.03-30.05L270.03-30.05 265.38-30.05 267.08-33.8Q270.83-33.8 273.38-33.83 275.93-33.85 277.73-33.88 279.53-33.9 280.93-33.95ZM298.38 0.45L298.38 0.45Q295.03 0.45 291.95-0.28 288.88-1 286.08-2.4L286.08-2.4Q286.53-4.45 286.65-6.63 286.78-8.8 286.78-10.85L286.78-10.85Q288.23-11.25 289.83-11.38 291.43-11.5 292.93-11.5L292.93-11.5Q293.18-8.35 293.65-6.65 294.13-4.95 295.2-4.3 296.28-3.65 298.13-3.65L298.13-3.65Q300.68-3.65 301.8-4.7 302.93-5.75 302.93-7L302.93-7Q302.93-8.3 301.75-9.22 300.58-10.15 298.75-10.98 296.93-11.8 294.88-12.78 292.83-13.75 291-15.18 289.18-16.6 288-18.7 286.83-20.8 286.83-23.9L286.83-23.9Q286.83-27.7 288.53-29.95 290.23-32.2 293-33.23 295.78-34.25 299.03-34.25L299.03-34.25Q300.93-34.25 302.93-33.95 304.93-33.65 306.65-33.18 308.38-32.7 309.33-32.05L309.33-32.05Q309.33-29.9 309.4-27.78 309.48-25.65 309.68-24.5L309.68-24.5Q308.63-23.85 306.93-23.6 305.23-23.35 303.93-23.35L303.93-23.35Q303.53-26.05 302.75-27.55 301.98-29.05 300.88-29.65 299.78-30.25 298.33-30.25L298.33-30.25Q296.78-30.25 295.65-29.55 294.53-28.85 294.53-27.35L294.53-27.35Q294.53-25.85 295.78-24.8 297.03-23.75 299-22.88 300.98-22 303.2-21 305.43-20 307.4-18.57 309.38-17.15 310.63-15.08 311.88-13 311.88-9.9L311.88-9.9Q311.88-6.7 310.33-4.38 308.78-2.05 305.78-0.8 302.78 0.45 298.38 0.45ZM318.08-9.35L318.08-24.55Q318.08-26.8 317.85-27.9 317.63-29 316.93-29.43 316.23-29.85 314.83-30.05L314.83-30.05Q314.63-30.8 314.5-31.9 314.38-33 314.38-33.95L314.38-33.95Q315.23-33.9 316.88-33.88 318.53-33.85 320.33-33.83 322.13-33.8 323.33-33.8L323.33-33.8Q324.53-33.8 326.13-33.83 327.73-33.85 329.25-33.88 330.78-33.9 331.78-33.95L331.78-33.95Q331.78-32.95 331.73-32 331.68-31.05 331.33-30.05L331.33-30.05Q329.98-29.9 329.28-29.48 328.58-29.05 328.33-27.93 328.08-26.8 328.08-24.55L328.08-24.55 328.08-9.35Q328.08-7.05 328.33-5.88 328.58-4.7 329.3-4.28 330.03-3.85 331.38-3.75L331.38-3.75Q331.58-3.1 331.68-1.98 331.78-0.85 331.78 0.15L331.78 0.15Q330.68 0.05 328.55 0.03 326.43 0 323.83 0L323.83 0Q321.23 0 318.68 0.03 316.13 0.05 314.38 0.15L314.38 0.15Q314.38-0.75 314.53-1.9 314.68-3.05 314.88-3.75L314.88-3.75Q316.23-3.85 316.93-4.28 317.63-4.7 317.85-5.88 318.08-7.05 318.08-9.35L318.08-9.35ZM352.72 0.45L352.72 0.45Q347.22 0.45 343.25-1.63 339.27-3.7 337.15-7.63 335.02-11.55 335.02-17.15L335.02-17.15Q335.02-21.2 336.25-24.38 337.47-27.55 339.8-29.75 342.12-31.95 345.42-33.1 348.72-34.25 352.92-34.25L352.92-34.25Q356.22-34.25 359.35-33.45 362.47-32.65 364.67-31.65L364.67-31.65Q364.37-29.95 364.25-27.95 364.12-25.95 364.12-23.9L364.12-23.9Q363.02-23.4 361.67-23.3 360.32-23.2 359.17-23.2L359.17-23.2Q359.02-25.85 358.22-27.4 357.42-28.95 356.02-29.65 354.62-30.35 352.67-30.35L352.67-30.35Q349.97-30.35 348.32-28.63 346.67-26.9 345.95-24.15 345.22-21.4 345.22-18.35L345.22-18.35Q345.22-14.05 346.22-10.7 347.22-7.35 349.05-5.45 350.87-3.55 353.37-3.55L353.37-3.55Q354.07-3.55 354.45-3.6 354.82-3.65 355.12-3.75L355.12-3.75Q355.82-4 356.27-4.7 356.72-5.4 356.72-7.35L356.72-7.35 356.72-9.05Q356.72-10.55 356.45-11.33 356.17-12.1 355.4-12.43 354.62-12.75 353.17-12.8L353.17-12.8Q352.97-13.6 352.9-14.55 352.82-15.5 352.82-16.65L352.82-16.65Q354.32-16.55 356.22-16.53 358.12-16.5 359.77-16.5L359.77-16.5Q361.32-16.5 363.37-16.53 365.42-16.55 366.97-16.6L366.97-16.6Q366.97-15.65 366.92-14.68 366.87-13.7 366.67-12.8L366.67-12.8Q365.82-12.75 365.4-12.48 364.97-12.2 364.87-11.58 364.77-10.95 364.77-9.85L364.77-9.85 364.77-8.65Q364.77-6.65 364.95-5.68 365.12-4.7 365.62-3.45L365.62-3.45Q363.32-1.75 359.95-0.65 356.57 0.45 352.72 0.45ZM395.87-13.85L394.22 0.45 372.72-28.65Q372.32-29.35 371.65-29.63 370.97-29.9 369.37-30.05L369.37-30.05Q369.17-30.9 369.07-31.88 368.97-32.85 368.97-33.95L368.97-33.95Q369.62-33.9 370.9-33.88 372.17-33.85 373.5-33.83 374.82-33.8 375.62-33.8L375.62-33.8Q376.87-33.8 378.57-33.83 380.27-33.85 381.27-33.95L381.27-33.95 395.87-13.85ZM368.97 0.15L368.97 0.15Q368.97-1.05 369.05-2 369.12-2.95 369.37-3.75L369.37-3.75Q370.92-3.95 371.8-4.53 372.67-5.1 373.05-6.58 373.42-8.05 373.42-10.9L373.42-10.9 373.42-30.75 377.17-30.35 377.17-10.9Q377.17-8.05 377.47-6.58 377.77-5.1 378.65-4.53 379.52-3.95 381.12-3.75L381.12-3.75Q381.37-2.95 381.42-1.9 381.47-0.85 381.47 0.15L381.47 0.15Q380.77 0.1 379.67 0.08 378.57 0.05 377.42 0.03 376.27 0 375.42 0L375.42 0Q374.57 0 373.27 0.03 371.97 0.05 370.77 0.08 369.57 0.1 368.97 0.15ZM394.22 0.45L394.22 0.45 395.02-9 395.02-22.9Q395.02-25.75 394.72-27.23 394.42-28.7 393.5-29.28 392.57-29.85 390.77-30.05L390.77-30.05Q390.57-30.9 390.5-32 390.42-33.1 390.42-33.95L390.42-33.95Q391.12-33.9 392.35-33.88 393.57-33.85 394.85-33.83 396.12-33.8 396.97-33.8L396.97-33.8Q398.27-33.8 399.82-33.85 401.37-33.9 402.27-33.95L402.27-33.95Q402.27-32.95 402.22-32 402.17-31.05 401.92-30.05L401.92-30.05Q400.62-29.9 399.95-29.33 399.27-28.75 399.02-27.3 398.77-25.85 398.77-22.9L398.77-22.9 398.77 0Q397.77 0.3 396.7 0.38 395.62 0.45 394.22 0.45Z" opacity="1" transform="matrix(1,0,0,1,0,0)" fill="#5f4435" class="undefined-text-0" data-fill-palette-color="primary" id="text-0">
</path>
</svg>
</g>
</svg>
</g>
</svg>
</g>
</svg>
</g>
<g transform="matrix(1,0,0,1,167.08697389221552,0)"><svg viewBox="0 0 63.323652215568856 47.323652215568856" height="47.323652215568856" width="63.323652215568856"><g><svg xmlns="http://www.w3.org/2000/svg" xmlnsXlink="http://www.w3.org/1999/xlink" version="1.1" x="8" y="0" viewBox="9.452499389648438 9.952499389648438 80.58499908447266 80.58499908447266" enable-background="new 0 0 100 100" xmlSpace="preserve" height="47.323652215568856" width="47.323652215568856" class="icon-icon-0" data-fill-palette-color="accent" id="icon-0"><g fill="#5f4435" data-fill-palette-color="accent"><path d="M89.76 26.92L73.08 10.23c-0.37-0.37-0.97-0.37-1.34 0L50.22 31.75l-3.8-3.79c-0.08-0.09-0.18-0.17-0.3-0.23l-2.25-1.11-1.14-0.56L13.25 11.54c-0.36-0.17-0.8-0.1-1.09 0.19-0.29 0.28-0.36 0.72-0.18 1.09l16.18 32.87c0.06 0.12 0.15 0.21 0.24 0.29l-0.01 0.01 3.8 3.79L9.73 72.24c-0.37 0.37-0.37 0.97 0 1.34l16.69 16.68c0.37 0.37 0.97 0.37 1.34 0l22.45-22.45 9.56 9.551c0.37 0.38 0.971 0.37 1.341 0L77.8 60.68c0.37-0.37 0.37-0.97 0-1.35l-9.56-9.55 21.52-21.52C90.13 27.89 90.13 27.29 89.76 26.92zM28.33 41.73l-0.42-0.85-8.82-17.93 4.3-4.3 17.93 8.82 1.22 0.61c-0.9 0.3-1.65 0.75-2.25 1.35-1.32 1.32-1.52 3-1.49 4.1-0.98 0.16-1.88 0.61-2.61 1.34-1.06 1.06-1.58 2.48-1.83 3.36-2.16 0.1-3.82 0.71-4.93 1.82C28.91 40.57 28.56 41.15 28.33 41.73zM27.08 88.25L11.74 72.91 22.2 62.44l4.98 4.979c0.37 0.37 0.97 0.37 1.34 0s0.37-0.97 0-1.34l-4.98-4.98 2.2-2.189 4.98 4.97c0.37 0.37 0.97 0.37 1.34 0s0.37-0.97 0-1.34l-4.98-4.97 2.2-2.2 4.98 4.97c0.36 0.37 0.97 0.37 1.34 0s0.37-0.96 0-1.34l-4.98-4.97 2.2-2.2 9.4 9.4c0.37 0.369 0.97 0.369 1.34 0 0.01-0.011 0.02-0.03 0.03-0.04l5.28 5.27L27.08 88.25zM75.79 60.01L60.44 75.35l-8.891-8.88-1.34-1.35L34.86 49.78l-1.33-1.34-3.65-3.64c-0.1-0.6-0.25-2.27 0.89-3.41 0.87-0.87 2.33-1.3 4.35-1.28 0.47 0 0.87-0.34 0.94-0.81 0-0.02 0.31-1.92 1.47-3.08 0.63-0.63 1.37-0.91 2.28-0.85 0.3 0.02 0.59-0.11 0.78-0.34s0.26-0.54 0.2-0.83c-0.01-0.02-0.48-2.11 0.84-3.43 0.76-0.77 2.01-1.17 3.69-1.23l3.56 3.56 1.34 1.34L65.56 49.78l1.341 1.34L75.79 60.01zM66.9 48.44l-9.811-9.81c0.061-0.3-0.03-0.62-0.26-0.85l-4.98-4.98 2.19-2.2 4.979 4.98c0.37 0.37 0.971 0.37 1.341 0s0.37-0.97 0-1.34l-4.971-4.98 2.19-2.2 4.979 4.98c0.37 0.37 0.971 0.37 1.341 0 0.369-0.37 0.369-0.97 0-1.34l-4.98-4.98 2.2-2.2 9.399 9.41c0.37 0.37 0.971 0.37 1.341 0 0.37-0.37 0.37-0.97 0-1.35l-9.4-9.4 2.08-2.07 0.12-0.12 4.979 4.97c0.37 0.37 0.971 0.37 1.341 0 0.369-0.37 0.369-0.97 0-1.34L66 18.65l2.2-2.2 4.97 4.97c0.37 0.37 0.98 0.38 1.34 0 0.38-0.37 0.38-0.96 0-1.34l-4.97-4.97 2.87-2.87 15.34 15.35L66.9 48.44z" fill="#5f4435" data-fill-palette-color="accent"></path><path d="M21.42 71.84c-1.87 1.87-1.87 4.92 0 6.79s4.92 1.87 6.79 0c1.88-1.87 1.88-4.92 0-6.79C26.34 69.96 23.29 69.96 21.42 71.84zM26.87 77.29c-1.13 1.13-2.97 1.13-4.11 0-1.13-1.13-1.13-2.98 0-4.11 1.14-1.14 2.98-1.14 4.12 0C28.01 74.31 28.01 76.16 26.87 77.29z" fill="#5f4435" data-fill-palette-color="accent"></path><path d="M82.87 65.75L66.19 82.44c-0.37 0.369-0.381 0.97 0 1.34 1.909 1.91 5.489 3.489 8.619 3.489 1.671 0 3.221-0.46 4.311-1.55l7.04-7.029c3.13-3.131 0.979-10.011-1.94-12.94C83.84 65.38 83.25 65.38 82.87 65.75zM84.82 77.35l-7.03 7.03c-2.021 2.01-6.93 0.66-9.54-1.32l15.24-15.25C85.48 70.42 86.83 75.34 84.82 77.35z" fill="#5f4435" data-fill-palette-color="accent"></path><path d="M56.95 61.08L55.6 59.73l-9.77-9.771-7.08-7.08c-0.37-0.38-0.97-0.38-1.34 0-0.37 0.37-0.37 0.97 0 1.34l1.51 1.51 15.34 15.34 1.351 1.35 5.13 5.13c0.37 0.37 0.97 0.37 1.34 0s0.37-0.97 0-1.34L56.95 61.08z" fill="#5f4435" data-fill-palette-color="accent"></path><path d="M61.45 53.88L46.11 38.54l-1.34-1.34-0.17-0.17c-0.37-0.37-0.97-0.37-1.34 0-0.37 0.37-0.37 0.97 0 1.34l0.17 0.17 6.36 6.36 10.32 10.32 1.35 1.351 5.13 5.13c0.37 0.37 0.97 0.37 1.34 0s0.37-0.97 0-1.34l-5.13-5.13L61.45 53.88z" fill="#5f4435" data-fill-palette-color="accent"></path><path d="M82.147 63.682c-0.37-0.37-0.972-0.37-1.341 0L64.117 80.37c-0.37 0.37-0.37 0.971 0 1.341 0.371 0.37 0.972 0.37 1.342 0l16.688-16.688C82.518 64.652 82.518 64.052 82.147 63.682z" fill="#5f4435" data-fill-palette-color="accent"></path><path d="M80.08 61.613c-0.371-0.369-0.972-0.369-1.342 0L62.05 78.303c-0.37 0.37-0.369 0.971 0 1.341 0.373 0.373 0.971 0.37 1.341 0L80.08 62.955C80.449 62.584 80.452 61.986 80.08 61.613z" fill="#5f4435" data-fill-palette-color="accent"></path></g></svg></g></svg></g><g><rect width="90.55385389221556" height="3.0880577386462273" y="43.23559447692263" x="230.41062610778437" fill="#5f4435" data-fill-palette-color="secondary"></rect><rect width="90.55385389221556" height="3.0880577386462273" y="43.23559447692263" x="76.53311999999997" fill="#5f4435" data-fill-palette-color="secondary"></rect></g></svg></g><defs></defs></svg><rect width="395.52" height="100.32082166099991" fill="none" stroke="none" visibility="hidden"></rect></g></svg></g></svg>